<svg width="596.91213" height="505.57464" xmlns="http://www.w3.org/2000/svg">

 <g>
  <title>Layer 1</title>
  <g id="svg_1">
   <path id="svg_2" fill="#e6e6e6" d="m575.42701,413.69586l-553.94189,0c-11.84669,0 -21.48512,-9.63791 -21.48512,-21.48512l0,-66.67087l596.91213,0l0,66.67087c0,11.84721 -9.63791,21.48512 -21.48512,21.48512z"/>
   <rect id="svg_3" fill="#e6e6e6" height="100.90143" width="141.262" y="402.54358" x="228.88706"/>
   <rect id="svg_4" fill="#e6e6e6" height="12.74544" width="158.25592" y="490.69956" x="220.3901"/>
   <path id="svg_5" fill="#3f3d56" d="m596.38107,353.68606l-596.38107,0l0,-338.94188c0,-8.12978 6.6144,-14.74418 14.74418,-14.74418l566.89271,0c8.12978,0 14.74418,6.6144 14.74418,14.74418l0,338.94188z"/>
   <rect id="svg_6" fill="#fff" height="319.69821" width="568.23436" y="15.40073" x="13.8077"/>
  </g>
  <g id="svg_7">
   <path fill="#38d39f" d="m123.85295,205.94936c4.34915,-3.59367 9.72872,-4.26258 12.0153,-1.49438c2.28658,2.7682 0.6142,7.92447 -3.73698,11.51883c-1.71842,1.45964 -3.76141,2.48653 -5.95805,2.99474l-18.6198,14.99379l-6.8499,-8.8877l19.08307,-13.83763c0.91372,-2.06202 2.30808,-3.87516 4.06637,-5.28765l-0.00001,0z" id="uuid-25324785-d0f2-4f1c-ad19-f4bb5410ff47-229"/>
   <path id="svg_8" fill="#38d39f" d="m16.2326,239.77936c-0.00944,-0.66307 -0.00322,-6.44713 4.27885,-10.10294c4.91893,-4.1995 11.85979,-2.49972 14.29424,-1.90355c5.62362,1.37718 6.08483,3.78959 11.36601,6.2683c9.8805,4.63743 -2.4994,2.26379 3.3798,0.77675c2.03505,-0.51473 31.31216,-2.54515 38.59979,-7.03056c14.17354,-8.72353 23.83086,-14.01349 23.83086,-14.01349l6.31321,12.62642s-9.1289,12.69357 -21.97706,22.09716c-13.17929,9.64592 -19.76894,14.46893 -29.78342,16.33239c-0.8624,0.16048 -22.07229,3.78187 -39.15515,-8.98085c-3.89654,-2.91112 -11.03588,-8.24498 -11.14714,-16.06965l0.00001,0.00002z"/>
   <circle id="svg_9" fill="#38d39f" r="21.99265" cy="185.67486" cx="35.81649"/>
   <g id="svg_10">
    <polygon id="svg_11" fill="#38d39f" points="208.05472 333.43009 185.4053 310.24577 173.7135 322.44168 190.58814 344.67132 207.32613 346.58567 208.05472 333.43009"/>
    <path id="svg_12" fill="#38d39f" d="m78.72568,289.95422c1.32477,0.11007 5.53464,0.95349 9.55849,-1.26037c2.74614,-1.51087 4.15455,-3.75738 4.63022,-4.4718c5.90139,-8.86325 28.55224,-22.68449 48.88084,-23.53504c4.60357,-0.1926 7.63375,0.34082 10.38795,1.77648c3.90537,2.03574 5.46449,4.95183 10.4203,11.78292c2.71086,3.73663 5.7104,7.25691 8.45393,10.96962c16.06194,21.7362 22.15102,23.44259 21.52868,30.41109c-0.6905,7.73164 -9.02898,15.06697 -14.5711,14.22018c-2.26965,-0.34678 -3.14862,-1.92498 -6.18099,-5.1199c-8.89113,-9.36767 -12.56963,-7.63699 -18.89978,-14.81212c-7.39056,-8.37709 -6.42307,-15.32303 -10.27892,-15.59132c-3.57571,-0.24879 -5.09524,5.67668 -12.72906,13.54826c-3.49306,3.60187 -5.98049,5.25419 -13.55853,10.51141c-29.51063,20.4729 -29.98163,21.91164 -35.9372,23.54443c-2.60568,0.71437 -21.09954,5.78468 -27.68759,-2.28408c-10.30952,-12.6267 14.04589,-50.68156 25.98276,-49.68978l0,0.00002z"/>
    <path id="svg_13" fill="#38d39f" d="m201.13025,338.66919c1.66577,-0.74799 3.61352,-1.62258 4.24018,-3.63382c0.42403,-1.3609 0.17985,-3.03892 -0.69661,-4.19845c-1.01127,-1.33788 -2.50808,-1.51421 -2.44753,-1.75092c0.09221,-0.36043 3.6317,-0.21954 7.51717,1.15395c0.73321,0.25919 4.0549,1.47292 8.28021,4.7716c3.38533,2.64291 2.92976,3.17274 5.0526,4.69665c6.51637,4.67782 12.62816,0.99108 16.15421,5.37796c1.36082,1.69307 1.94121,4.09684 1.36853,6.04048c-1.15007,3.90324 -6.74285,5.24648 -9.7995,5.93997c-7.3615,1.67019 -12.93347,0.30673 -18.75163,-0.67366c-19.78659,-3.33419 -30.90389,-0.29752 -32.39188,-4.8815c-0.28162,-0.86758 0.1759,-0.7937 1.70153,-7.16035c1.50577,-6.2838 1.45637,-8.0095 2.7388,-8.5127c1.9304,-0.75745 3.22657,2.68803 8.08945,3.86718c4.30931,1.04492 7.86513,-0.55173 8.94448,-1.03639l-0.00001,0z"/>
   </g>
   <g id="svg_14">
    <polygon id="svg_15" fill="#38d39f" points="167.78776 409.27485 162.06533 377.37247 145.54248 380.8986 147.02265 408.7683 159.79754 419.75133 167.78776 409.27485"/>
    <path id="svg_16" fill="#38d39f" d="m85.1876,300.67759c1.03437,0.83499 4.04422,3.89687 8.61693,4.32456c3.1207,0.29189 5.5476,-0.77612 6.34237,-1.10016c9.86016,-4.02006 36.36378,-2.73717 53.66232,7.97432c3.91739,2.42571 6.12517,4.56865 7.59796,7.30318c2.08836,3.87748 1.74096,7.16592 2.00574,15.60118c0.14485,4.61413 0.65006,9.21134 0.83536,13.82403c1.08478,27.00503 5.165,31.83623 0.73697,37.25285c-4.91296,6.00981 -15.93171,7.39707 -20.04204,3.58429c-1.6833,-1.56144 -1.52438,-3.36089 -2.23945,-7.70732c-2.09668,-12.74399 -6.1123,-13.37756 -7.3211,-22.86924c-1.41128,-11.08171 3.28968,-16.28586 0.2498,-18.67306c-2.81902,-2.21375 -7.40373,1.83601 -18.14054,4.06268c-4.91292,1.01889 -7.89899,0.98932 -17.12157,1.08406c-35.91491,0.369 -37.11255,1.29501 -42.95736,-0.69821c-2.55722,-0.87208 -20.70715,-7.06164 -21.62754,-17.43758c-1.44026,-16.23716 40.08188,-34.04923 49.40214,-26.52558l0.00001,0z"/>
    <path id="svg_17" fill="#38d39f" d="m159.11615,409.72161c1.79837,0.31647 3.90115,0.68652 5.54907,-0.62579c1.11506,-0.88797 1.85529,-2.41356 1.78117,-3.86518c-0.08551,-1.6749 -1.22503,-2.66132 -1.042,-2.82318c0.2787,-0.24646 3.12834,1.85768 5.57211,5.17601c0.46116,0.62619 2.52813,3.49574 4.17204,8.59791c1.3171,4.08786 0.64262,4.27045 1.54344,6.72347c2.76521,7.52985 9.89266,7.91126 10.3469,13.52119c0.17529,2.16508 -0.69427,4.48 -2.25957,5.76669c-3.14344,2.58393 -8.52547,0.55484 -11.44413,-0.58775c-7.02916,-2.75176 -10.87405,-7.00882 -15.13778,-11.08716c-14.50016,-13.86979 -25.4044,-17.59987 -24.06156,-22.22846c0.25415,-0.87602 0.59124,-0.55798 5.42874,-4.96936c4.77454,-4.35399 5.70271,-5.80966 7.04642,-5.50591c2.02264,0.45724 1.1604,4.03605 4.52206,7.74243c2.97899,3.28446 6.81783,3.96004 7.98309,4.16509z"/>
   </g>
   <path id="svg_18" fill="#38d39f" d="m38.81486,189.87923c0.85618,-3.06269 -0.2192,-4.1788 0.87688,-5.55356c0.00002,-0.00004 0.44108,-0.55322 4.38439,-2.04605l0,0c-1.16344,-6.75042 -0.29231,-7.89186 -0.29229,-7.8919c1.00399,-1.31553 3.0152,-1.63355 4.38439,-1.46146c2.89579,0.36397 3.40837,2.98166 5.26127,2.92293c2.55961,-0.08114 5.62956,-5.20482 4.67668,-9.64566c-0.77729,-3.62247 -4.12881,-6.31266 -4.96897,-5.84585c-0.83301,0.46284 -3.83172,-1.5781 -4.96897,-1.16917c-0.77665,0.27927 -4.43236,-0.09227 -5.26127,0.29229c-0.90523,0.41999 -3.49763,3.03482 -3.74548,2.70535c-1.72237,-2.28946 -1.6857,-3.0888 -2.68496,-3.58223c-1.77067,-0.87434 -3.69571,0.74172 -7.01502,2.33834c-6.82959,3.28508 -8.8294,1.32549 -11.984,4.0921c-1.59355,1.39756 -2.44808,4.06851 -4.0921,9.35336c-2.29915,7.39081 -3.44871,11.08621 -2.33834,14.61463c1.13238,3.59835 2.79995,2.81517 5.26127,7.8919c2.73983,5.65125 1.79552,8.93605 4.38439,10.23024c2.00086,1.00026 5.21638,0.36365 6.43044,-1.46146c2.07861,-3.12477 -3.29393,-7.35177 -1.46146,-12.27629c1.12484,-3.02287 4.59478,-5.31493 6.72273,-4.67668c2.40606,0.72167 2.58325,5.03573 4.0921,4.96897c1.29207,-0.05716 2.18914,-3.2661 2.33834,-3.7998l-0.00002,0z"/>
   <path id="svg_19" fill="#38d39f" d="m22.15418,210.9243c4.50049,-5.04615 22.83197,0.17676 24.55258,8.18419c0.7077,3.29357 -1.9049,4.68425 -1.16917,8.47649c1.0761,5.54667 7.16909,5.16857 11.6917,10.81483c6.42075,8.016 -0.19392,15.85188 7.01502,29.22926c1.54044,2.85856 2.83881,5.26787 5.55356,7.59961c6.22959,5.35068 12.02717,3.51565 15.19922,8.47649c2.37209,3.70978 1.39747,8.28224 1.16917,9.35336c-0.93616,4.39206 -3.47342,5.46222 -5.26127,9.06107c-2.97456,5.98761 0.39336,10.38356 0.58459,17.53756c0.23927,8.95093 -4.51735,21.35848 -14.03005,25.42946c-10.68707,4.57357 -23.57658,-3.00132 -29.81385,-10.52253c-3.72182,-4.488 -4.8022,-8.62788 -6.43044,-13.73775c-7.27695,-22.83729 -11.38807,-20.77183 -16.95297,-38.87492c-6.3617,-20.69512 -7.61233,-44.94052 0,-52.61267c1.00898,-1.01692 3.78571,-3.36736 5.55356,-7.59961c2.37887,-5.69507 0.32374,-8.55598 2.33834,-10.81483l0.00001,-0.00001z"/>
   <g id="svg_20">
    <path fill="#38d39f" d="m88.65331,328.39105c3.48927,4.43334 4.03014,9.82729 1.20837,12.04743c-2.82177,2.22013 -7.93683,0.42567 -11.42675,-4.00971c-1.41838,-1.75263 -2.39643,-3.81945 -2.85228,-6.02755l-14.54698,-18.97093l7.51668,-5.73344l14.91146,18.50331c2.03972,0.96247 3.81921,2.39954 5.18951,4.1909l-0.00001,-0.00001z" id="uuid-91308677-eda7-42a2-9f2e-a07e84038198-230"/>
    <path id="svg_21" fill="#38d39f" d="m35.37742,230.15543c0.64719,-0.14454 6.31083,-1.31867 10.76347,2.12736c5.11484,3.95855 4.86707,11.10022 4.78019,13.60509c-0.20073,5.78631 -2.46827,6.73006 -3.81723,12.40591c-2.52378,10.61887 2.28253,20.4873 4.93792,25.93939c0.91914,1.88721 3.87205,7.66186 9.7501,13.88094c11.43206,12.09534 21.6324,18.45987 21.6324,18.45987l-10.95803,9.74043s-17.45493,-5.3202 -29.2823,-15.97929c-12.13217,-10.9338 -30.78935,-49.61903 -34.65703,-59.04258c-0.33308,-0.81151 4.38498,12.38209 13.39349,-6.94555c2.0548,-4.40857 5.81969,-12.48606 13.45703,-14.19157l-0.00001,0z"/>
   </g>
  </g>
  <g id="svg_22">
   <path id="svg_23" fill="#3f3d56" d="m315.83751,221.08136l-13.08365,-6.1978c5.36634,7.4891 9.99038,19.18539 12.46595,28.49257c4.19148,-8.66968 10.94828,-19.27767 17.63647,-25.61422l-13.82798,3.55737c8.52074,-41.7599 40.56942,-71.73938 77.2696,-71.73938l0.51953,-1.50838c-38.33429,0 -72.27996,29.56391 -80.97992,73.00984z"/>
   <path id="svg_24" fill="#38d39f" d="m376.05662,284.71011l-82.66786,0c-3.50634,0 -6.35907,-2.85273 -6.35907,-6.35907s2.85273,-6.35907 6.35907,-6.35907l82.66786,0c3.50634,0 6.35907,2.85273 6.35907,6.35907s-2.85273,6.35907 -6.35907,6.35907z"/>
   <path id="svg_25" fill="#e6e6e6" d="m486.05662,284.71011l-82.66786,0c-3.50634,0 -6.35907,-2.85273 -6.35907,-6.35907s2.85273,-6.35907 6.35907,-6.35907l82.66786,0c3.50634,0 6.35907,2.85273 6.35907,6.35907s-2.85273,6.35907 -6.35907,6.35907z"/>
  </g>
  <g id="svg_26">
   <path id="svg_27" fill="#3f3d56" d="m437.11815,111.71741l-80.3571,0c-2.02587,0 -3.67427,-1.64841 -3.67427,-3.67428s1.64841,-3.67351 3.67427,-3.67351l80.3571,0c2.02587,0 3.67351,1.64765 3.67351,3.67351s-1.64764,3.67427 -3.67351,3.67427l0,0.00001z"/>
   <path id="svg_28" fill="#3f3d56" d="m480.23862,150.91545l-166.59803,0c-2.02587,0 -3.67427,-1.64842 -3.67427,-3.67428s1.64841,-3.67351 3.67427,-3.67351l166.59803,0c2.02587,0 3.67351,1.64765 3.67351,3.67352c0,2.02587 -1.64764,3.67427 -3.67351,3.67427z"/>
  </g>
  <path id="svg_29" fill="#3f3d56" d="m36.12104,504.38463c0,0.66003 0.53003,1.19 1.19006,1.19l522.28998,0c0.65997,0 1.19,-0.52997 1.19,-1.19c0,-0.65997 -0.53003,-1.19 -1.19,-1.19l-522.28998,0c-0.66003,0 -1.19006,0.53003 -1.19006,1.19z"/>
  <path id="svg_30" fill="#3f3d56" d="m164.36892,222.29651c-0.14159,0 -0.28281,-0.00519 -0.42513,-0.01408c-8.36889,-0.53744 -37.00488,-4.58938 -54.10034,-34.14792c-1.40884,-2.43368 -1.13122,-5.52786 0.69015,-7.69839l31.66012,-37.72172c1.29468,-1.54264 3.2947,-2.43146 5.3203,-2.407c1.39994,0.03336 4.71466,0.38696 5.35848,2.94221c3.80323,15.09655 19.8631,32.84694 39.17726,35.19982c1.95777,0.23796 3.52932,1.98446 4.2039,4.67166c0.52632,2.09194 0.04003,4.24838 -1.33471,5.9163l-25.36242,30.79799c-1.28838,1.56414 -3.17906,2.46111 -5.18761,2.46111l0,0.00002zm-16.97648,-80.47167c-1.54709,0 -3.05193,0.69311 -4.03563,1.86511l-31.65975,37.72172c-1.41292,1.68349 -1.62937,4.07937 -0.53967,5.96226c16.71851,28.90694 44.70512,32.8677 52.88424,33.39328c1.67015,0.11194 3.27395,-0.59971 4.3429,-1.89698l25.36279,-30.79799c1.06488,-1.29208 1.44146,-2.96149 1.03411,-4.58123c-0.39808,-1.58564 -1.37326,-3.34696 -2.91553,-3.53525c-19.95242,-2.42998 -36.53972,-20.75265 -40.46564,-36.33549c-0.31802,-1.26169 -2.23242,-1.75465 -3.91776,-1.79468c-0.03002,-0.00074 -0.06005,-0.00074 -0.09007,-0.00074l0.00001,-0.00001z"/>
  <path id="svg_31" fill="#e6e6e6" d="m129.02956,189.37601l22.82552,-23.27322c1.5603,-1.59089 -0.88415,-4.0393 -2.44639,-2.44641l-22.82552,23.27322c-1.5603,1.59089 0.88415,4.0393 2.44639,2.44641l0,0z"/>
  <path id="svg_32" fill="#e6e6e6" d="m142.80616,195.93278c6.29954,-5.64633 11.77383,-12.18399 16.25639,-19.35766c1.18327,-1.89361 -1.80885,-3.6323 -2.9874,-1.7462c-4.33369,6.93544 -9.62593,13.19938 -15.71542,18.65747c-1.66149,1.48921 0.79191,3.92934 2.44639,2.44639l0.00004,0z"/>
  <path id="svg_33" fill="#e6e6e6" d="m155.22261,203.78396c5.73555,-6.35342 10.61777,-13.4443 14.46148,-21.09311c0.99713,-1.98424 -1.9864,-3.73813 -2.9874,-1.7462c-3.7137,7.39012 -8.37772,14.25303 -13.92048,20.39292c-1.48868,1.64906 0.9506,4.10334 2.44639,2.44639l0,0l0.00001,0z"/>
  <g id="svg_34">
   <ellipse id="svg_35" fill="#38d39f" ry="22.52779" rx="23.01268" cy="139.35715" cx="145.44339"/>
   <path id="svg_36" fill="#ffffff" d="m157.41747,150.04337c-3.53924,-8.70173 -7.07853,-17.40341 -10.61777,-26.10509c-0.48882,-1.20182 -2.02009,-1.2445 -2.49716,0c-3.49698,9.12301 -5.78219,18.64254 -6.8808,28.34862c-0.18709,1.65324 2.40401,1.63991 2.58962,0c0.42992,-3.79819 1.06816,-7.56798 1.88753,-11.29757c2.91638,0.153 5.85674,-0.17418 8.67112,-0.9533c1.45013,3.56526 2.90026,7.13048 4.35034,10.69574c0.61964,1.52347 3.12576,0.8572 2.49711,-0.6884l0.00001,0zm-14.93138,-11.61416c0.87227,-3.57038 1.91798,-7.09834 3.13134,-10.56966l3.969,9.75819c-2.32472,0.61016 -4.70218,0.8816 -7.10034,0.81147z"/>
  </g>
 </g>
</svg>